<?xml version="1.0" encoding="utf-8"?>
<!-- Generator: Adobe Illustrator 21.0.2, SVG Export Plug-In . SVG Version: 6.00 Build 0)  -->
<svg version="1.1" id="Layer_1" xmlns="http://www.w3.org/2000/svg" xmlns:xlink="http://www.w3.org/1999/xlink" x="0px" y="0px"
	 viewBox="0 0 150 100" style="enable-background:new 0 0 150 100;" xml:space="preserve">
<style type="text/css">
	.st0{fill:#FFFFFF;}
	.st1{fill:#A3DBDE;}
	.st2{fill:none;stroke:#000000;stroke-miterlimit:10;}
</style>
<g>
	<rect width="150" height="100"/>
</g>
<g>
	<rect x="5" y="5" class="st0" width="140" height="90"/>
</g>
<rect x="120" y="5" transform="matrix(-1 -1.224647e-16 1.224647e-16 -1 265 100)" class="st1" width="25" height="90"/>
<g>
	<line class="st2" x1="113" y1="85.8" x2="12" y2="85.8"/>
	<line class="st2" x1="113" y1="80.2" x2="12" y2="80.2"/>
	<line class="st2" x1="113" y1="74.8" x2="12" y2="74.8"/>
	<line class="st2" x1="113" y1="69.2" x2="12" y2="69.2"/>
	<line class="st2" x1="113" y1="63.8" x2="12" y2="63.8"/>
	<line class="st2" x1="113" y1="58.2" x2="12" y2="58.2"/>
	<line class="st2" x1="113" y1="52.8" x2="12" y2="52.8"/>
	<line class="st2" x1="113" y1="47.2" x2="12" y2="47.2"/>
	<line class="st2" x1="113" y1="41.8" x2="12" y2="41.8"/>
	<line class="st2" x1="113" y1="36.2" x2="12" y2="36.2"/>
	<line class="st2" x1="113" y1="30.8" x2="12" y2="30.8"/>
	<line class="st2" x1="113" y1="25.2" x2="12" y2="25.2"/>
	<line class="st2" x1="113" y1="19.8" x2="12" y2="19.8"/>
	<line class="st2" x1="113" y1="14.2" x2="12" y2="14.2"/>
</g>
</svg>
